<svg width="40" height="40" viewBox="0 0 40 40" fill="none" xmlns="http://www.w3.org/2000/svg">
<path d="M22.9474 25.0526C22.9474 26.6804 21.6278 28 20 28C18.3722 28 17.0527 26.6804 17.0527 25.0526M26.0894 25.0526H13.9107C13.088 25.0526 12.4211 24.3857 12.4211 23.563C12.4211 23.168 12.578 22.7891 12.8574 22.5097L13.3654 22.0018C13.8391 21.528 14.1053 20.8854 14.1053 20.2154V17.8947C14.1053 14.6392 16.7445 12 20 12C23.2556 12 25.8948 14.6392 25.8948 17.8947V20.2154C25.8948 20.8854 26.161 21.528 26.6347 22.0018L27.1427 22.5097C27.422 22.7891 27.579 23.168 27.579 23.563C27.579 24.3857 26.912 25.0526 26.0894 25.0526Z" stroke="#EF4444" stroke-width="1.5" stroke-linecap="round" stroke-linejoin="round"/>
</svg>
