<svg width="20" height="20" viewBox="0 0 20 20" fill="none" xmlns="http://www.w3.org/2000/svg">
<path d="M3.69133 8.18228C4.08368 8.44444 4.62986 8.44444 5.72222 8.44444C6.81458 8.44444 7.36076 8.44444 7.75311 8.18228C7.92296 8.06879 8.06879 7.92295 8.18228 7.7531C8.44444 7.36075 8.44444 6.81457 8.44444 5.72222C8.44444 4.62986 8.44444 4.08368 8.18228 3.69133C8.06879 3.52148 7.92296 3.37565 7.75311 3.26216C7.36076 3 6.81458 3 5.72222 3C4.62986 3 4.08368 3 3.69133 3.26216C3.52148 3.37565 3.37565 3.52148 3.26217 3.69133C3 4.08368 3 4.62986 3 5.72222C3 6.81457 3 7.36075 3.26217 7.7531C3.37565 7.92295 3.52148 8.06879 3.69133 8.18228Z" stroke="#808080" stroke-width="1.4" stroke-linejoin="round"/>
<path d="M12.2469 8.18228C12.6392 8.44444 13.1854 8.44444 14.2778 8.44444C15.3701 8.44444 15.9163 8.44444 16.3086 8.18228C16.4785 8.06879 16.6243 7.92295 16.7378 7.7531C17 7.36075 17 6.81457 17 5.72222C17 4.62986 17 4.08368 16.7378 3.69133C16.6243 3.52148 16.4785 3.37565 16.3086 3.26216C15.9163 3 15.3701 3 14.2778 3C13.1854 3 12.6392 3 12.2469 3.26216C12.0771 3.37565 11.9312 3.52148 11.8177 3.69133C11.5556 4.08368 11.5556 4.62986 11.5556 5.72222C11.5556 6.81457 11.5556 7.36075 11.8177 7.7531C11.9312 7.92295 12.0771 8.06879 12.2469 8.18228Z" stroke="#808080" stroke-width="1.4" stroke-linejoin="round"/>
<path d="M3.69133 16.7379C4.08368 17 4.62986 17 5.72222 17C6.81458 17 7.36076 17 7.75311 16.7379C7.92296 16.6244 8.06879 16.4785 8.18228 16.3087C8.44444 15.9164 8.44444 15.3702 8.44444 14.2778C8.44444 13.1854 8.44444 12.6393 8.18228 12.247C8.06879 12.0771 7.92296 11.9313 7.75311 11.8178C7.36076 11.5556 6.81458 11.5556 5.72222 11.5556C4.62986 11.5556 4.08368 11.5556 3.69133 11.8178C3.52148 11.9313 3.37565 12.0771 3.26217 12.247C3 12.6393 3 13.1854 3 14.2778C3 15.3702 3 15.9164 3.26217 16.3087C3.37565 16.4785 3.52148 16.6244 3.69133 16.7379Z" stroke="#808080" stroke-width="1.4" stroke-linejoin="round"/>
<path d="M12.2469 16.7379C12.6392 17 13.1854 17 14.2778 17C15.3701 17 15.9163 17 16.3086 16.7379C16.4785 16.6244 16.6243 16.4785 16.7378 16.3087C17 15.9164 17 15.3702 17 14.2778C17 13.1854 17 12.6393 16.7378 12.247C16.6243 12.0771 16.4785 11.9313 16.3086 11.8178C15.9163 11.5556 15.3701 11.5556 14.2778 11.5556C13.1854 11.5556 12.6392 11.5556 12.2469 11.8178C12.0771 11.9313 11.9312 12.0771 11.8177 12.247C11.5556 12.6393 11.5556 13.1854 11.5556 14.2778C11.5556 15.3702 11.5556 15.9164 11.8177 16.3087C11.9312 16.4785 12.0771 16.6244 12.2469 16.7379Z" stroke="#808080" stroke-width="1.4" stroke-linejoin="round"/>
</svg>
