<svg width="24" height="24" viewBox="0 0 24 24" fill="none" xmlns="http://www.w3.org/2000/svg">
<path fill-rule="evenodd" clip-rule="evenodd" d="M4.54437 4.54437C5.6616 3.42715 7.33342 3 9.48837 3H14.5116C16.6666 3 18.3384 3.42715 19.4556 4.54437C20.5729 5.6616 21 7.33342 21 9.48837V14.5116C21 16.6666 20.5729 18.3384 19.4556 19.4556C18.3384 20.5729 16.6666 21 14.5116 21H9.48837C7.33342 21 5.6616 20.5729 4.54437 19.4556C3.42715 18.3384 3 16.6666 3 14.5116V9.48837C3 7.33342 3.42715 5.6616 4.54437 4.54437ZM5.43237 5.43237C4.66588 6.19886 4.25581 7.45728 4.25581 9.48837V14.5116C4.25581 16.5427 4.66588 17.8011 5.43237 18.5676C6.19886 19.3341 7.45728 19.7442 9.48837 19.7442H14.5116C16.5427 19.7442 17.8011 19.3341 18.5676 18.5676C19.3341 17.8011 19.7442 16.5427 19.7442 14.5116V9.48837C19.7442 7.45728 19.3341 6.19886 18.5676 5.43237C17.8011 4.66588 16.5427 4.25581 14.5116 4.25581H9.48837C7.45728 4.25581 6.19886 4.66588 5.43237 5.43237Z" fill="#808080"/>
</svg>
