<svg width="24" height="24" viewBox="0 0 24 24" fill="none" xmlns="http://www.w3.org/2000/svg">
<path d="M3.59998 6.5832C3.18576 6.5832 2.84998 6.91899 2.84998 7.3332C2.84998 7.74742 3.18576 8.0832 3.59998 8.0832V7.3332V6.5832ZM3.59998 15.9165C3.18576 15.9165 2.84998 16.2523 2.84998 16.6665C2.84998 17.0807 3.18576 17.4165 3.59998 17.4165V16.6665V15.9165ZM9.19998 17.4165C9.61419 17.4165 9.94998 17.0807 9.94998 16.6665C9.94998 16.2523 9.61419 15.9165 9.19998 15.9165V16.6665V17.4165ZM20.4 17.4165C20.8142 17.4165 21.15 17.0807 21.15 16.6665C21.15 16.2523 20.8142 15.9165 20.4 15.9165V16.6665V17.4165ZM14.8 6.5832C14.3858 6.5832 14.05 6.91899 14.05 7.3332C14.05 7.74742 14.3858 8.0832 14.8 8.0832V7.3332V6.5832ZM20.4 8.0832C20.8142 8.0832 21.15 7.74742 21.15 7.3332C21.15 6.91899 20.8142 6.5832 20.4 6.5832V7.3332V8.0832ZM6.54207 5.68552L5.84916 5.39851L5.84915 5.39852L6.54207 5.68552ZM7.5523 4.67529L7.26529 3.98238L7.26528 3.98239L7.5523 4.67529ZM10.8477 4.67529L11.1347 3.9824L11.1347 3.98237L10.8477 4.67529ZM11.8579 5.68552L12.5509 5.39858L12.5508 5.39849L11.8579 5.68552ZM11.8579 8.98088L12.5508 9.26791L12.5509 9.26782L11.8579 8.98088ZM10.8477 9.99111L11.1347 10.684L11.1347 10.684L10.8477 9.99111ZM7.5523 9.99111L7.26528 10.684L7.26529 10.684L7.5523 9.99111ZM6.54207 8.98088L5.84915 9.26789L5.84916 9.2679L6.54207 8.98088ZM12.142 15.0188L11.4491 14.7318L11.4491 14.7319L12.142 15.0188ZM13.1523 14.0086L12.8654 13.3156L12.8652 13.3157L13.1523 14.0086ZM16.4477 14.0086L16.7347 13.3157L16.7346 13.3156L16.4477 14.0086ZM17.4579 15.0188L18.1509 14.7319L18.1508 14.7318L17.4579 15.0188ZM17.4579 18.3142L18.1508 18.6013L18.1509 18.6011L17.4579 18.3142ZM16.4477 19.3245L16.7346 20.0174L16.7347 20.0174L16.4477 19.3245ZM13.1523 19.3245L12.8652 20.0174L12.8654 20.0174L13.1523 19.3245ZM12.142 18.3142L11.4491 18.6011L11.4491 18.6013L12.142 18.3142ZM3.59998 7.3332V8.0832H6.39998V7.3332V6.5832H3.59998V7.3332ZM3.59998 16.6665V17.4165H9.19998V16.6665V15.9165H3.59998V16.6665ZM17.6 16.6665V17.4165H20.4V16.6665V15.9165H17.6V16.6665ZM14.8 7.3332V8.0832H20.4V7.3332V6.5832H14.8V7.3332ZM6.39998 7.3332H7.14998C7.14998 6.88806 7.15038 6.59177 7.166 6.3629C7.18115 6.14077 7.20809 6.03744 7.23498 5.97253L6.54207 5.68552L5.84915 5.39852C5.73395 5.67666 5.68984 5.96229 5.66948 6.2608C5.64957 6.55256 5.64998 6.90859 5.64998 7.3332H6.39998ZM6.54207 5.68552L7.23497 5.97254C7.34831 5.69893 7.5657 5.48154 7.83931 5.3682L7.5523 4.67529L7.26528 3.98239C6.62413 4.24796 6.11474 4.75736 5.84916 5.39851L6.54207 5.68552ZM7.5523 4.67529L7.8393 5.36821C7.90421 5.34132 8.00754 5.31438 8.22967 5.29922C8.45854 5.28361 8.75484 5.2832 9.19998 5.2832V4.5332V3.7832C8.77536 3.7832 8.41934 3.7828 8.12757 3.8027C7.82906 3.82307 7.54343 3.86718 7.26529 3.98238L7.5523 4.67529ZM9.19998 4.5332V5.2832C9.64511 5.2832 9.9414 5.28361 10.1703 5.29922C10.3924 5.31438 10.4958 5.34132 10.5607 5.36822L10.8477 4.67529L11.1347 3.98237C10.8565 3.86718 10.5709 3.82307 10.2724 3.8027C9.98061 3.7828 9.62459 3.7832 9.19998 3.7832V4.5332ZM10.8477 4.67529L10.5606 5.36819C10.8343 5.48154 11.0517 5.69896 11.165 5.97255L11.8579 5.68552L12.5508 5.39849C12.2852 4.75733 11.7758 4.24796 11.1347 3.9824L10.8477 4.67529ZM11.8579 5.68552L11.165 5.97247C11.1919 6.03739 11.2188 6.14074 11.234 6.36289C11.2496 6.59177 11.25 6.88807 11.25 7.3332H12H12.75C12.75 6.90858 12.7504 6.55257 12.7305 6.26081C12.7101 5.96231 12.666 5.6767 12.5509 5.39858L11.8579 5.68552ZM12 7.3332H11.25C11.25 7.77834 11.2496 8.07464 11.234 8.30352C11.2188 8.52566 11.1919 8.62901 11.165 8.69394L11.8579 8.98088L12.5509 9.26782C12.666 8.9897 12.7101 8.70409 12.7305 8.4056C12.7504 8.11384 12.75 7.75782 12.75 7.3332H12ZM11.8579 8.98088L11.165 8.69385C11.0517 8.96745 10.8343 9.18487 10.5606 9.29821L10.8477 9.99111L11.1347 10.684C11.7758 10.4184 12.2852 9.90907 12.5508 9.26791L11.8579 8.98088ZM10.8477 9.99111L10.5607 9.29819C10.4958 9.32509 10.3924 9.35203 10.1703 9.36718C9.9414 9.3828 9.64511 9.3832 9.19998 9.3832V10.1332V10.8832C9.62459 10.8832 9.98061 10.8836 10.2724 10.8637C10.5709 10.8433 10.8565 10.7992 11.1347 10.684L10.8477 9.99111ZM9.19998 10.1332V9.3832C8.75484 9.3832 8.45854 9.3828 8.22967 9.36718C8.00754 9.35203 7.90421 9.32508 7.8393 9.2982L7.5523 9.99111L7.26529 10.684C7.54343 10.7992 7.82906 10.8433 8.12757 10.8637C8.41934 10.8836 8.77536 10.8832 9.19998 10.8832V10.1332ZM7.5523 9.99111L7.83931 9.2982C7.5657 9.18487 7.34831 8.96748 7.23497 8.69386L6.54207 8.98088L5.84916 9.2679C6.11474 9.90905 6.62413 10.4184 7.26528 10.684L7.5523 9.99111ZM6.54207 8.98088L7.23498 8.69388C7.20809 8.62897 7.18115 8.52564 7.166 8.3035C7.15038 8.07464 7.14998 7.77834 7.14998 7.3332H6.39998H5.64998C5.64998 7.75782 5.64957 8.11384 5.66948 8.40561C5.68984 8.70412 5.73395 8.98975 5.84915 9.26789L6.54207 8.98088ZM12 16.6665H12.75C12.75 16.2214 12.7504 15.9251 12.766 15.6962C12.7811 15.4741 12.8081 15.3707 12.835 15.3057L12.142 15.0188L11.4491 14.7319C11.3339 15.01 11.2898 15.2956 11.2695 15.5941C11.2496 15.8859 11.25 16.2419 11.25 16.6665H12ZM12.142 15.0188L12.8349 15.3059C12.9483 15.0323 13.1657 14.8148 13.4393 14.7015L13.1523 14.0086L12.8652 13.3157C12.2241 13.5813 11.7147 14.0907 11.4491 14.7318L12.142 15.0188ZM13.1523 14.0086L13.4392 14.7015C13.5042 14.6746 13.6075 14.6477 13.8297 14.6326C14.0585 14.6169 14.3548 14.6165 14.8 14.6165V13.8665V13.1165C14.3753 13.1165 14.0193 13.1161 13.7276 13.136C13.4291 13.1564 13.1435 13.2005 12.8654 13.3156L13.1523 14.0086ZM14.8 13.8665V14.6165C15.2451 14.6165 15.5414 14.6169 15.7703 14.6326C15.9924 14.6477 16.0958 14.6746 16.1608 14.7015L16.4477 14.0086L16.7346 13.3156C16.4565 13.2005 16.1709 13.1564 15.8724 13.136C15.5806 13.1161 15.2246 13.1165 14.8 13.1165V13.8665ZM16.4477 14.0086L16.1606 14.7015C16.4342 14.8148 16.6517 15.0323 16.765 15.3059L17.4579 15.0188L18.1508 14.7318C17.8852 14.0907 17.3758 13.5813 16.7347 13.3157L16.4477 14.0086ZM17.4579 15.0188L16.765 15.3057C16.7919 15.3707 16.8188 15.4741 16.834 15.6962C16.8496 15.9251 16.85 16.2214 16.85 16.6665H17.6H18.35C18.35 16.2419 18.3504 15.8859 18.3305 15.5941C18.3101 15.2956 18.266 15.01 18.1509 14.7319L17.4579 15.0188ZM17.6 16.6665H16.85C16.85 17.1117 16.8496 17.408 16.834 17.6369C16.8188 17.859 16.7919 17.9624 16.765 18.0273L17.4579 18.3142L18.1509 18.6011C18.266 18.323 18.3101 18.0374 18.3305 17.7389C18.3504 17.4472 18.35 17.0912 18.35 16.6665H17.6ZM17.4579 18.3142L16.765 18.0272C16.6517 18.3008 16.4342 18.5182 16.1606 18.6316L16.4477 19.3245L16.7347 20.0174C17.3758 19.7518 17.8852 19.2424 18.1508 18.6013L17.4579 18.3142ZM16.4477 19.3245L16.1608 18.6315C16.0958 18.6584 15.9924 18.6854 15.7703 18.7005C15.5414 18.7161 15.2451 18.7165 14.8 18.7165V19.4665V20.2165C15.2246 20.2165 15.5806 20.2169 15.8724 20.197C16.1709 20.1767 16.4565 20.1326 16.7346 20.0174L16.4477 19.3245ZM14.8 19.4665V18.7165C14.3548 18.7165 14.0585 18.7161 13.8297 18.7005C13.6075 18.6854 13.5042 18.6584 13.4392 18.6315L13.1523 19.3245L12.8654 20.0174C13.1435 20.1326 13.4291 20.1767 13.7276 20.197C14.0193 20.2169 14.3753 20.2165 14.8 20.2165V19.4665ZM13.1523 19.3245L13.4393 18.6316C13.1657 18.5182 12.9483 18.3008 12.8349 18.0272L12.142 18.3142L11.4491 18.6013C11.7147 19.2424 12.2241 19.7518 12.8652 20.0174L13.1523 19.3245ZM12.142 18.3142L12.835 18.0273C12.8081 17.9624 12.7811 17.859 12.766 17.6369C12.7504 17.408 12.75 17.1117 12.75 16.6665H12H11.25C11.25 17.0912 11.2496 17.4472 11.2695 17.7389C11.2898 18.0374 11.3339 18.323 11.4491 18.6011L12.142 18.3142Z" fill="#EF4444"/>
</svg>
