<svg width="24" height="24" viewBox="0 0 24 24" fill="none" xmlns="http://www.w3.org/2000/svg">
<path d="M15.0947 17.3048C15.0947 19.014 13.7092 20.3995 12 20.3995C10.2908 20.3995 8.90527 19.014 8.90527 17.3048M18.3938 17.3049H5.60617C4.74236 17.3049 4.04211 16.6046 4.04211 15.7408C4.04211 15.326 4.2069 14.9282 4.50021 14.6348L5.0336 14.1015C5.53106 13.604 5.81053 12.9293 5.81053 12.2258V9.78908C5.81053 6.37073 8.58165 3.59961 12 3.59961C15.4184 3.59961 18.1895 6.37072 18.1895 9.78908V12.2258C18.1895 12.9293 18.469 13.604 18.9664 14.1015L19.4998 14.6348C19.7931 14.9282 19.9579 15.326 19.9579 15.7408C19.9579 16.6046 19.2576 17.3049 18.3938 17.3049Z" stroke="#1A1A1A" stroke-width="1.68" stroke-linecap="round" stroke-linejoin="round"/>
</svg>
