<svg width="20" height="20" viewBox="0 0 20 20" fill="none" xmlns="http://www.w3.org/2000/svg">
<path fill-rule="evenodd" clip-rule="evenodd" d="M3.32961 2.66254C3.58502 2.43035 3.9803 2.44917 4.21249 2.70458L8.35024 7.25611C8.35357 7.25961 8.35687 7.26316 8.36014 7.26675C8.36341 7.27035 8.36664 7.27398 8.36981 7.27763L12.5521 11.8782C12.5564 11.8826 12.5606 11.8871 12.5648 11.8918C12.569 11.8964 12.5731 11.901 12.5771 11.9057L16.7125 16.4546C16.9447 16.71 16.9259 17.1053 16.6705 17.3375C16.415 17.5697 16.0198 17.5508 15.7876 17.2954L14.0678 15.4037C12.7884 15.9716 11.4009 16.261 9.99756 16.2503C6.66601 16.2496 4.32886 14.7443 2.83934 13.2548C2.0962 12.5116 1.56033 11.7696 1.20942 11.2122C1.03365 10.9331 0.903403 10.6989 0.816014 10.532C0.772297 10.4486 0.739235 10.3818 0.716506 10.3346C0.705139 10.311 0.696349 10.2923 0.690096 10.2788L0.682612 10.2624L0.680286 10.2573L0.679475 10.2555C0.67934 10.2552 0.678898 10.2542 1.25003 10.0003C0.678916 9.74645 0.679006 9.74625 0.6791 9.74604L0.679843 9.74438L0.681274 9.74119L0.685658 9.73155L0.700553 9.69951C0.713221 9.67263 0.731398 9.63485 0.755213 9.58728C0.802827 9.49217 0.873071 9.35772 0.966979 9.19277C1.1546 8.8632 1.43781 8.40992 1.82515 7.90452C2.48567 7.04267 3.45922 6.01605 4.7903 5.19843L3.28757 3.54542C3.05538 3.29001 3.0742 2.89473 3.32961 2.66254ZM5.64826 6.14219C4.3781 6.87565 3.44726 7.84291 2.81729 8.66489C2.46996 9.11808 2.21757 9.52261 2.05327 9.81121C2.0132 9.8816 1.97843 9.94498 1.94886 10.0004C2.02239 10.1381 2.12798 10.3251 2.26721 10.5462C2.58036 11.0436 3.06011 11.7078 3.72322 12.3709C5.04583 13.6935 7.08289 15.0003 10 15.0003H10.0049C11.0911 15.0088 12.1664 14.8115 13.1748 14.4214L12.0248 13.1564C11.3738 13.574 10.6045 13.783 9.82171 13.7457C8.82819 13.6984 7.89415 13.2584 7.22507 12.5225C6.55599 11.7865 6.20668 10.8149 6.25397 9.82136C6.29124 9.03849 6.57236 8.29255 7.04997 7.68407L5.64826 6.14219ZM7.90895 8.62894C7.66618 8.99932 7.52397 9.43091 7.50256 9.88079C7.47103 10.5432 7.70391 11.1909 8.14998 11.6816C8.59606 12.1723 9.21877 12.4656 9.88114 12.4972C10.331 12.5186 10.7741 12.418 11.1659 12.2115L7.90895 8.62894ZM1.25003 10.0003L0.6791 9.74604C0.607259 9.90765 0.607068 10.0925 0.678898 10.2542L1.25003 10.0003ZM8.2827 3.8896C8.85048 3.79594 9.42502 3.74925 10.0005 3.75001C13.3331 3.75014 15.6709 5.25574 17.1607 6.74557C17.9039 7.48871 18.4398 8.23077 18.7907 8.7881C18.9664 9.06725 19.0967 9.30148 19.1841 9.46831C19.2278 9.55177 19.2608 9.6185 19.2836 9.66571C19.2949 9.68931 19.3037 9.70806 19.31 9.72158L19.3175 9.73792L19.3198 9.74307L19.3206 9.74488C19.3207 9.74518 19.3212 9.74618 18.7501 10C19.3212 10.2538 19.3211 10.254 19.3211 10.2541L19.3196 10.2573L19.3169 10.2633L19.3081 10.2824C19.3008 10.2983 19.2904 10.3204 19.2768 10.3483C19.2498 10.404 19.2104 10.4828 19.158 10.581C19.0535 10.7774 18.8972 11.0521 18.6857 11.3756C18.2635 12.0213 17.6163 12.8692 16.7146 13.6766C16.4575 13.9068 16.0623 13.885 15.8321 13.6279C15.6018 13.3707 15.6236 12.9756 15.8808 12.7453C16.6822 12.0277 17.2612 11.2701 17.6394 10.6916C17.8257 10.4067 17.962 10.1672 18.0512 10C17.9777 9.8623 17.8721 9.67526 17.7329 9.45411C17.4197 8.95675 16.94 8.29256 16.2769 7.62945C14.9543 6.30685 12.9172 5.00001 10.0001 5.00001L9.9992 5.00001C9.49233 4.99932 8.98627 5.04043 8.48615 5.12293C8.14558 5.17911 7.82394 4.94856 7.76776 4.60799C7.71158 4.26741 7.94213 3.94578 8.2827 3.8896ZM18.7501 10L19.3211 10.2541C19.3929 10.0925 19.393 9.90777 19.3212 9.74618L18.7501 10ZM9.97449 6.81292C10.0394 6.4739 10.3669 6.2517 10.7059 6.31662C11.5031 6.4693 12.2293 6.87654 12.7754 7.47718C13.3214 8.07781 13.6578 8.83941 13.734 9.64756C13.7664 9.99121 13.5141 10.2961 13.1705 10.3285C12.8268 10.3609 12.5219 10.1086 12.4895 9.76494C12.4387 9.22617 12.2145 8.71844 11.8504 8.31802C11.4864 7.91759 11.0023 7.6461 10.4708 7.54432C10.1318 7.47939 9.90956 7.15194 9.97449 6.81292Z" fill="#1A1A1A"/>
</svg>
