<svg width="176" height="57" viewBox="0 0 176 57" fill="none" xmlns="http://www.w3.org/2000/svg">
<g opacity="0.1">
<path d="M0.501425 56.0407V28.3663H11.3905C13.4749 28.3663 15.2538 28.7402 16.7272 29.4879C18.2096 30.2266 19.3372 31.2761 20.1098 32.6364C20.8915 33.9877 21.2823 35.5777 21.2823 37.4064C21.2823 39.2442 20.887 40.8252 20.0964 42.1494C19.3057 43.4647 18.1602 44.4737 16.6598 45.1763C15.1684 45.879 13.3626 46.2303 11.2423 46.2303H3.95143V41.5279H10.2989C11.413 41.5279 12.3383 41.3747 13.0751 41.0684C13.8118 40.7621 14.3598 40.3027 14.7192 39.6901C15.0876 39.0775 15.2717 38.3163 15.2717 37.4064C15.2717 36.4875 15.0876 35.7128 14.7192 35.0822C14.3598 34.4516 13.8073 33.9742 13.0616 33.6498C12.3249 33.3165 11.395 33.1499 10.2719 33.1499H6.33678V56.0407H0.501425ZM15.4065 43.4467L22.2661 56.0407H15.8243L9.11295 43.4467H15.4065Z" fill="#10B981"/>
<path d="M34.3984 56.4461C32.2691 56.4461 30.4363 56.0137 28.8999 55.1488C27.3726 54.275 26.1956 53.0408 25.3691 51.4463C24.5425 49.8428 24.1292 47.9465 24.1292 45.7574C24.1292 43.6224 24.5425 41.7486 25.3691 40.136C26.1956 38.5235 27.3591 37.2668 28.8595 36.3659C30.3689 35.4651 32.1388 35.0146 34.1693 35.0146C35.5349 35.0146 36.8062 35.2354 37.9831 35.6768C39.1691 36.1092 40.2023 36.7623 41.0828 37.6361C41.9722 38.51 42.664 39.609 43.1581 40.9333C43.6523 42.2485 43.8994 43.789 43.8994 45.5547V47.1357H26.4202V43.5683H38.4953C38.4953 42.7395 38.3156 42.0053 37.9562 41.3657C37.5968 40.7261 37.0982 40.2261 36.4603 39.8658C35.8314 39.4964 35.0992 39.3117 34.2636 39.3117C33.3921 39.3117 32.6195 39.5144 31.9456 39.9198C31.2808 40.3162 30.7597 40.8522 30.3824 41.5279C30.005 42.1945 29.8118 42.9377 29.8029 43.7575V47.1492C29.8029 48.1762 29.9915 49.0635 30.3689 49.8113C30.7552 50.559 31.2988 51.1355 31.9995 51.5409C32.7003 51.9463 33.5314 52.149 34.4927 52.149C35.1306 52.149 35.7146 52.0589 36.2447 51.8787C36.7747 51.6985 37.2285 51.4283 37.6058 51.068C37.9831 50.7076 38.2706 50.2662 38.4683 49.7437L43.7781 50.095C43.5085 51.3742 42.956 52.4913 42.1205 53.4462C41.2939 54.3921 40.2247 55.1308 38.913 55.6623C37.6103 56.1848 36.1054 56.4461 34.3984 56.4461Z" fill="#10B981"/>
<path d="M64.8689 41.2035L59.613 41.5279C59.5232 41.0774 59.33 40.672 59.0335 40.3117C58.7371 39.9423 58.3462 39.6496 57.8611 39.4334C57.3849 39.2081 56.8144 39.0955 56.1496 39.0955C55.2601 39.0955 54.5099 39.2847 53.899 39.6631C53.288 40.0324 52.9826 40.5279 52.9826 41.1495C52.9826 41.645 53.1802 42.0639 53.5755 42.4062C53.9709 42.7485 54.6492 43.0233 55.6105 43.2305L59.357 43.9872C61.3695 44.4016 62.8699 45.0682 63.8582 45.9871C64.8464 46.906 65.3406 48.1131 65.3406 49.6086C65.3406 50.9689 64.9408 52.1625 64.1412 53.1895C63.3505 54.2164 62.2634 55.0182 60.8798 55.5948C59.5052 56.1623 57.9195 56.4461 56.1226 56.4461C53.3824 56.4461 51.1992 55.874 49.573 54.7299C47.9558 53.5768 47.008 52.0093 46.7294 50.0275L52.3761 49.7302C52.5468 50.568 52.9601 51.2076 53.616 51.649C54.2718 52.0814 55.1119 52.2976 56.1361 52.2976C57.1423 52.2976 57.9509 52.1039 58.5619 51.7166C59.1818 51.3202 59.4962 50.8112 59.5052 50.1896C59.4962 49.6671 59.2761 49.2392 58.8449 48.9059C58.4136 48.5636 57.7488 48.3023 56.8503 48.1221L53.2656 47.406C51.2441 47.0006 49.7392 46.2979 48.7509 45.2979C47.7716 44.298 47.282 43.0233 47.282 41.4738C47.282 40.1405 47.6414 38.9919 48.3601 38.028C49.0878 37.0641 50.1076 36.3209 51.4193 35.7984C52.74 35.2759 54.2853 35.0146 56.0552 35.0146C58.6697 35.0146 60.7271 35.5687 62.2275 36.6767C63.7369 37.7848 64.6173 39.2937 64.8689 41.2035Z" fill="#10B981"/>
<path d="M79.966 35.2849V39.609H67.5002V35.2849H79.966ZM70.3303 30.3122H76.0713V49.6626C76.0713 50.1941 76.1522 50.6085 76.3139 50.9058C76.4756 51.1941 76.7002 51.3968 76.9877 51.5139C77.2842 51.631 77.6256 51.6895 78.0119 51.6895C78.2815 51.6895 78.551 51.667 78.8205 51.622C79.0901 51.5679 79.2967 51.5274 79.4404 51.5004L80.3434 55.7839C80.0559 55.874 79.6516 55.9776 79.1305 56.0947C78.6094 56.2209 77.976 56.2974 77.2303 56.3245C75.8467 56.3785 74.6338 56.1938 73.5916 55.7704C72.5584 55.347 71.7543 54.6894 71.1793 53.7976C70.6043 52.9057 70.3213 51.7796 70.3303 50.4193V30.3122Z" fill="#10B981"/>
<path d="M92.8362 56.4461C90.7428 56.4461 88.9324 56.0002 87.4051 55.1083C85.8867 54.2074 84.7143 52.9552 83.8877 51.3517C83.0611 49.7392 82.6479 47.8699 82.6479 45.7439C82.6479 43.5998 83.0611 41.726 83.8877 40.1225C84.7143 38.51 85.8867 37.2578 87.4051 36.3659C88.9324 35.4651 90.7428 35.0146 92.8362 35.0146C94.9295 35.0146 96.7354 35.4651 98.2537 36.3659C99.7811 37.2578 100.958 38.51 101.785 40.1225C102.611 41.726 103.024 43.5998 103.024 45.7439C103.024 47.8699 102.611 49.7392 101.785 51.3517C100.958 52.9552 99.7811 54.2074 98.2537 55.1083C96.7354 56.0002 94.9295 56.4461 92.8362 56.4461ZM92.8631 51.9868C93.8155 51.9868 94.6106 51.7166 95.2485 51.1761C95.8864 50.6265 96.367 49.8788 96.6905 48.9329C97.0229 47.987 97.1891 46.9105 97.1891 45.7033C97.1891 44.4962 97.0229 43.4197 96.6905 42.4738C96.367 41.5279 95.8864 40.7801 95.2485 40.2306C94.6106 39.6811 93.8155 39.4063 92.8631 39.4063C91.9018 39.4063 91.0932 39.6811 90.4373 40.2306C89.7905 40.7801 89.3008 41.5279 88.9684 42.4738C88.6449 43.4197 88.4832 44.4962 88.4832 45.7033C88.4832 46.9105 88.6449 47.987 88.9684 48.9329C89.3008 49.8788 89.7905 50.6265 90.4373 51.1761C91.0932 51.7166 91.9018 51.9868 92.8631 51.9868Z" fill="#10B981"/>
<path d="M116.11 56.4461C113.99 56.4461 112.166 55.9956 110.639 55.0948C109.12 54.1849 107.952 52.9237 107.135 51.3112C106.326 49.6986 105.922 47.8429 105.922 45.7439C105.922 43.6178 106.331 41.7531 107.148 40.1495C107.975 38.537 109.147 37.2803 110.666 36.3794C112.184 35.4696 113.99 35.0146 116.083 35.0146C117.889 35.0146 119.47 35.3435 120.827 36.0011C122.184 36.6587 123.257 37.5821 124.048 38.7712C124.839 39.9604 125.274 41.3567 125.355 42.9602H119.938C119.785 41.9242 119.381 41.0909 118.725 40.4603C118.078 39.8207 117.229 39.5009 116.178 39.5009C115.288 39.5009 114.511 39.7442 113.846 40.2306C113.19 40.7081 112.678 41.4062 112.31 42.3251C111.941 43.244 111.757 44.3566 111.757 45.6628C111.757 46.9871 111.937 48.1131 112.296 49.041C112.665 49.9689 113.181 50.6761 113.846 51.1625C114.511 51.649 115.288 51.8922 116.178 51.8922C116.833 51.8922 117.422 51.7571 117.943 51.4868C118.473 51.2166 118.909 50.8247 119.25 50.3112C119.601 49.7887 119.83 49.1626 119.938 48.4329H125.355C125.265 50.0184 124.834 51.4148 124.061 52.6219C123.298 53.8201 122.242 54.757 120.894 55.4326C119.547 56.1083 117.952 56.4461 116.11 56.4461Z" fill="#10B981"/>
<path d="M134.233 50.068L134.246 43.1629H135.082L141.712 35.2849H148.302L139.394 45.7168H138.033L134.233 50.068ZM129.031 56.0407V28.3663H134.772V56.0407H129.031ZM141.968 56.0407L135.877 47.0006L139.704 42.9332L148.693 56.0407H141.968Z" fill="#10B981"/>
<path d="M151.227 56.0407V28.3663H162.116C164.2 28.3663 165.979 28.7402 167.453 29.4879C168.935 30.2266 170.063 31.2761 170.835 32.6364C171.617 33.9877 172.008 35.5777 172.008 37.4064C172.008 39.2442 171.612 40.8252 170.822 42.1494C170.031 43.4647 168.886 44.4737 167.385 45.1763C165.894 45.879 164.088 46.2303 161.968 46.2303H154.677V41.5279H161.024C162.138 41.5279 163.064 41.3747 163.8 41.0684C164.537 40.7621 165.085 40.3027 165.445 39.6901C165.813 39.0775 165.997 38.3163 165.997 37.4064C165.997 36.4875 165.813 35.7128 165.445 35.0822C165.085 34.4516 164.533 33.9742 163.787 33.6498C163.05 33.3165 162.12 33.1499 160.997 33.1499H157.062V56.0407H151.227ZM166.132 43.4467L172.991 56.0407H166.55L159.838 43.4467H166.132Z" fill="#EF4444"/>
</g>
<path d="M0.501425 43.72V16.0456H11.3905C13.4749 16.0456 15.2538 16.4194 16.7272 17.1672C18.2096 17.9059 19.3372 18.9554 20.1098 20.3157C20.8915 21.6669 21.2823 23.257 21.2823 25.0857C21.2823 26.9235 20.887 28.5045 20.0964 29.8287C19.3057 31.144 18.1602 32.1529 16.6598 32.8556C15.1684 33.5583 13.3626 33.9096 11.2423 33.9096H3.95143V29.2071H10.2989C11.413 29.2071 12.3383 29.054 13.0751 28.7477C13.8118 28.4414 14.3598 27.982 14.7192 27.3694C15.0876 26.7568 15.2717 25.9956 15.2717 25.0857C15.2717 24.1668 15.0876 23.3921 14.7192 22.7615C14.3598 22.1309 13.8073 21.6534 13.0616 21.3291C12.3249 20.9958 11.395 20.8291 10.2719 20.8291H6.33678V43.72H0.501425ZM15.4065 31.126L22.2661 43.72H15.8243L9.11295 31.126H15.4065Z" fill="#10B981"/>
<path d="M34.3984 44.1254C32.2691 44.1254 30.4363 43.6929 28.8999 42.8281C27.3726 41.9543 26.1956 40.7201 25.3691 39.1256C24.5425 37.5221 24.1292 35.6257 24.1292 33.4367C24.1292 31.3016 24.5425 29.4278 25.3691 27.8153C26.1956 26.2028 27.3591 24.9461 28.8595 24.0452C30.3689 23.1444 32.1388 22.6939 34.1693 22.6939C35.5349 22.6939 36.8062 22.9146 37.9831 23.3561C39.1691 23.7885 40.2023 24.4416 41.0828 25.3154C41.9722 26.1893 42.664 27.2883 43.1581 28.6126C43.6523 29.9278 43.8994 31.4683 43.8994 33.234V34.815H26.4202V31.2476H38.4953C38.4953 30.4188 38.3156 29.6846 37.9562 29.045C37.5968 28.4054 37.0982 27.9054 36.4603 27.545C35.8314 27.1757 35.0992 26.991 34.2636 26.991C33.3921 26.991 32.6195 27.1937 31.9456 27.5991C31.2808 27.9955 30.7597 28.5315 30.3824 29.2071C30.005 29.8738 29.8118 30.617 29.8029 31.4368V34.8285C29.8029 35.8555 29.9915 36.7428 30.3689 37.4905C30.7552 38.2382 31.2988 38.8148 31.9995 39.2202C32.7003 39.6256 33.5314 39.8283 34.4927 39.8283C35.1306 39.8283 35.7146 39.7382 36.2447 39.558C36.7747 39.3778 37.2285 39.1076 37.6058 38.7472C37.9831 38.3869 38.2706 37.9455 38.4683 37.423L43.7781 37.7743C43.5085 39.0535 42.956 40.1706 42.1205 41.1255C41.2939 42.0714 40.2247 42.8101 38.913 43.3416C37.6103 43.8641 36.1054 44.1254 34.3984 44.1254Z" fill="#10B981"/>
<path d="M64.8689 28.8828L59.613 29.2071C59.5232 28.7567 59.33 28.3513 59.0335 27.991C58.7371 27.6216 58.3462 27.3288 57.8611 27.1126C57.3849 26.8874 56.8144 26.7748 56.1496 26.7748C55.2601 26.7748 54.5099 26.964 53.899 27.3424C53.288 27.7117 52.9826 28.2072 52.9826 28.8288C52.9826 29.3242 53.1802 29.7431 53.5755 30.0855C53.9709 30.4278 54.6492 30.7026 55.6105 30.9098L59.357 31.6665C61.3695 32.0809 62.8699 32.7475 63.8582 33.6664C64.8464 34.5853 65.3406 35.7924 65.3406 37.2878C65.3406 38.6481 64.9408 39.8418 64.1412 40.8687C63.3505 41.8957 62.2634 42.6975 60.8798 43.274C59.5052 43.8416 57.9195 44.1254 56.1226 44.1254C53.3824 44.1254 51.1992 43.5533 49.573 42.4092C47.9558 41.2561 47.008 39.6886 46.7294 37.7067L52.3761 37.4095C52.5468 38.2473 52.9601 38.8869 53.616 39.3283C54.2718 39.7607 55.1119 39.9769 56.1361 39.9769C57.1423 39.9769 57.9509 39.7832 58.5619 39.3958C59.1818 38.9995 59.4962 38.4905 59.5052 37.8689C59.4962 37.3464 59.2761 36.9185 58.8449 36.5852C58.4136 36.2428 57.7488 35.9816 56.8503 35.8014L53.2656 35.0852C51.2441 34.6798 49.7392 33.9772 48.7509 32.9772C47.7716 31.9773 47.282 30.7026 47.282 29.1531C47.282 27.8198 47.6414 26.6712 48.3601 25.7073C49.0878 24.7434 50.1076 24.0002 51.4193 23.4777C52.74 22.9552 54.2853 22.6939 56.0552 22.6939C58.6697 22.6939 60.7271 23.248 62.2275 24.356C63.7369 25.4641 64.6173 26.973 64.8689 28.8828Z" fill="#10B981"/>
<path d="M79.966 22.9642V27.2883H67.5002V22.9642H79.966ZM70.3303 17.9914H76.0713V37.3419C76.0713 37.8734 76.1522 38.2878 76.3139 38.5851C76.4756 38.8733 76.7002 39.076 76.9877 39.1932C77.2842 39.3103 77.6256 39.3688 78.0119 39.3688C78.2815 39.3688 78.551 39.3463 78.8205 39.3013C79.0901 39.2472 79.2967 39.2067 79.4404 39.1796L80.3434 43.4632C80.0559 43.5533 79.6516 43.6569 79.1305 43.774C78.6094 43.9001 77.976 43.9767 77.2303 44.0037C75.8467 44.0578 74.6338 43.8731 73.5916 43.4497C72.5584 43.0263 71.7543 42.3687 71.1793 41.4768C70.6043 40.585 70.3213 39.4589 70.3303 38.0986V17.9914Z" fill="#10B981"/>
<path d="M92.8362 44.1254C90.7428 44.1254 88.9324 43.6794 87.4051 42.7876C85.8867 41.8867 84.7143 40.6345 83.8877 39.031C83.0611 37.4185 82.6479 35.5492 82.6479 33.4232C82.6479 31.2791 83.0611 29.4053 83.8877 27.8018C84.7143 26.1893 85.8867 24.9371 87.4051 24.0452C88.9324 23.1444 90.7428 22.6939 92.8362 22.6939C94.9295 22.6939 96.7354 23.1444 98.2537 24.0452C99.7811 24.9371 100.958 26.1893 101.785 27.8018C102.611 29.4053 103.024 31.2791 103.024 33.4232C103.024 35.5492 102.611 37.4185 101.785 39.031C100.958 40.6345 99.7811 41.8867 98.2537 42.7876C96.7354 43.6794 94.9295 44.1254 92.8362 44.1254ZM92.8631 39.6661C93.8155 39.6661 94.6106 39.3958 95.2485 38.8553C95.8864 38.3058 96.367 37.5581 96.6905 36.6122C97.0229 35.6663 97.1891 34.5898 97.1891 33.3826C97.1891 32.1755 97.0229 31.0989 96.6905 30.153C96.367 29.2071 95.8864 28.4594 95.2485 27.9099C94.6106 27.3604 93.8155 27.0856 92.8631 27.0856C91.9018 27.0856 91.0932 27.3604 90.4373 27.9099C89.7905 28.4594 89.3008 29.2071 88.9684 30.153C88.6449 31.0989 88.4832 32.1755 88.4832 33.3826C88.4832 34.5898 88.6449 35.6663 88.9684 36.6122C89.3008 37.5581 89.7905 38.3058 90.4373 38.8553C91.0932 39.3958 91.9018 39.6661 92.8631 39.6661Z" fill="#10B981"/>
<path d="M116.11 44.1254C113.99 44.1254 112.166 43.6749 110.639 42.7741C109.12 41.8642 107.952 40.603 107.135 38.9905C106.326 37.3779 105.922 35.5222 105.922 33.4232C105.922 31.2971 106.331 29.4323 107.148 27.8288C107.975 26.2163 109.147 24.9596 110.666 24.0587C112.184 23.1489 113.99 22.6939 116.083 22.6939C117.889 22.6939 119.47 23.0227 120.827 23.6804C122.184 24.338 123.257 25.2614 124.048 26.4505C124.839 27.6396 125.274 29.036 125.355 30.6395H119.938C119.785 29.6035 119.381 28.7702 118.725 28.1396C118.078 27.5 117.229 27.1802 116.178 27.1802C115.288 27.1802 114.511 27.4234 113.846 27.9099C113.19 28.3874 112.678 29.0855 112.31 30.0044C111.941 30.9233 111.757 32.0358 111.757 33.3421C111.757 34.6663 111.937 35.7924 112.296 36.7203C112.665 37.6482 113.181 38.3554 113.846 38.8418C114.511 39.3283 115.288 39.5715 116.178 39.5715C116.833 39.5715 117.422 39.4364 117.943 39.1661C118.473 38.8959 118.909 38.504 119.25 37.9905C119.601 37.468 119.83 36.8419 119.938 36.1122H125.355C125.265 37.6977 124.834 39.0941 124.061 40.3012C123.298 41.4993 122.242 42.4362 120.894 43.1119C119.547 43.7875 117.952 44.1254 116.11 44.1254Z" fill="#10B981"/>
<path d="M134.233 37.7473L134.246 30.8422H135.082L141.712 22.9642H148.302L139.394 33.3961H138.033L134.233 37.7473ZM129.031 43.72V16.0456H134.772V43.72H129.031ZM141.968 43.72L135.877 34.6798L139.704 30.6125L148.693 43.72H141.968Z" fill="#10B981"/>
<path d="M151.227 43.72V16.0456H162.116C164.2 16.0456 165.979 16.4194 167.453 17.1672C168.935 17.9059 170.063 18.9554 170.835 20.3157C171.617 21.6669 172.008 23.257 172.008 25.0857C172.008 26.9235 171.612 28.5045 170.822 29.8287C170.031 31.144 168.886 32.1529 167.385 32.8556C165.894 33.5583 164.088 33.9096 161.968 33.9096H154.677V29.2071H161.024C162.138 29.2071 163.064 29.054 163.8 28.7477C164.537 28.4414 165.085 27.982 165.445 27.3694C165.813 26.7568 165.997 25.9956 165.997 25.0857C165.997 24.1668 165.813 23.3921 165.445 22.7615C165.085 22.1309 164.533 21.6534 163.787 21.3291C163.05 20.9958 162.12 20.8291 160.997 20.8291H157.062V43.72H151.227ZM166.132 31.126L172.991 43.72H166.55L159.838 31.126H166.132Z" fill="#EF4444"/>
<g opacity="0.1">
<path d="M0.501425 27.6744V0H11.3905C13.4749 0 15.2538 0.373856 16.7272 1.12157C18.2096 1.86027 19.3372 2.90977 20.1098 4.27007C20.8915 5.62136 21.2823 7.21137 21.2823 9.04012C21.2823 10.8779 20.887 12.4589 20.0964 13.7831C19.3057 15.0984 18.1602 16.1074 16.6598 16.81C15.1684 17.5127 13.3626 17.864 11.2423 17.864H3.95143V13.1615H10.2989C11.413 13.1615 12.3383 13.0084 13.0751 12.7021C13.8118 12.3958 14.3598 11.9364 14.7192 11.3238C15.0876 10.7112 15.2717 9.94999 15.2717 9.04012C15.2717 8.12124 15.0876 7.3465 14.7192 6.7159C14.3598 6.0853 13.8073 5.60785 13.0616 5.28354C12.3249 4.95022 11.395 4.78356 10.2719 4.78356H6.33678V27.6744H0.501425ZM15.4065 15.0804L22.2661 27.6744H15.8243L9.11295 15.0804H15.4065Z" fill="#10B981"/>
<path d="M34.3984 28.0798C32.2691 28.0798 30.4363 27.6474 28.8999 26.7825C27.3726 25.9087 26.1956 24.6745 25.3691 23.08C24.5425 21.4765 24.1292 19.5802 24.1292 17.3911C24.1292 15.256 24.5425 13.3823 25.3691 11.7697C26.1956 10.1572 27.3591 8.90048 28.8595 7.99963C30.3689 7.09877 32.1388 6.64834 34.1693 6.64834C35.5349 6.64834 36.8062 6.86905 37.9831 7.31047C39.1691 7.74288 40.2023 8.396 41.0828 9.26984C41.9722 10.1437 42.664 11.2427 43.1581 12.567C43.6523 13.8822 43.8994 15.4227 43.8994 17.1884V18.7694H26.4202V15.202H38.4953C38.4953 14.3732 38.3156 13.639 37.9562 12.9994C37.5968 12.3598 37.0982 11.8598 36.4603 11.4995C35.8314 11.1301 35.0992 10.9454 34.2636 10.9454C33.3921 10.9454 32.6195 11.1481 31.9456 11.5535C31.2808 11.9499 30.7597 12.4859 30.3824 13.1615C30.005 13.8282 29.8118 14.5714 29.8029 15.3912V18.7829C29.8029 19.8099 29.9915 20.6972 30.3689 21.4449C30.7552 22.1927 31.2988 22.7692 31.9995 23.1746C32.7003 23.58 33.5314 23.7827 34.4927 23.7827C35.1306 23.7827 35.7146 23.6926 36.2447 23.5124C36.7747 23.3322 37.2285 23.062 37.6058 22.7016C37.9831 22.3413 38.2706 21.8999 38.4683 21.3774L43.7781 21.7287C43.5085 23.0079 42.956 24.125 42.1205 25.0799C41.2939 26.0258 40.2247 26.7645 38.913 27.296C37.6103 27.8185 36.1054 28.0798 34.3984 28.0798Z" fill="#10B981"/>
<path d="M64.8689 12.8372L59.613 13.1615C59.5232 12.7111 59.33 12.3057 59.0335 11.9454C58.7371 11.576 58.3462 11.2833 57.8611 11.0671C57.3849 10.8418 56.8144 10.7292 56.1496 10.7292C55.2601 10.7292 54.5099 10.9184 53.899 11.2968C53.288 11.6661 52.9826 12.1616 52.9826 12.7832C52.9826 13.2787 53.1802 13.6976 53.5755 14.0399C53.9709 14.3822 54.6492 14.657 55.6105 14.8642L59.357 15.6209C61.3695 16.0353 62.8699 16.7019 63.8582 17.6208C64.8464 18.5397 65.3406 19.7468 65.3406 21.2423C65.3406 22.6025 64.9408 23.7962 64.1412 24.8232C63.3505 25.8501 62.2634 26.6519 60.8798 27.2285C59.5052 27.796 57.9195 28.0798 56.1226 28.0798C53.3824 28.0798 51.1992 27.5077 49.573 26.3636C47.9558 25.2105 47.008 23.643 46.7294 21.6612L52.3761 21.3639C52.5468 22.2017 52.9601 22.8413 53.616 23.2827C54.2718 23.7151 55.1119 23.9313 56.1361 23.9313C57.1423 23.9313 57.9509 23.7376 58.5619 23.3503C59.1818 22.9539 59.4962 22.4449 59.5052 21.8233C59.4962 21.3008 59.2761 20.8729 58.8449 20.5396C58.4136 20.1973 57.7488 19.936 56.8503 19.7558L53.2656 19.0397C51.2441 18.6343 49.7392 17.9316 48.7509 16.9316C47.7716 15.9317 47.282 14.657 47.282 13.1075C47.282 11.7742 47.6414 10.6256 48.3601 9.66171C49.0878 8.69779 50.1076 7.95458 51.4193 7.43209C52.74 6.90959 54.2853 6.64834 56.0552 6.64834C58.6697 6.64834 60.7271 7.20237 62.2275 8.31042C63.7369 9.41848 64.6173 10.9274 64.8689 12.8372Z" fill="#10B981"/>
<path d="M79.966 6.9186V11.2427H67.5002V6.9186H79.966ZM70.3303 1.94586H76.0713V21.2963C76.0713 21.8278 76.1522 22.2422 76.3139 22.5395C76.4756 22.8278 76.7002 23.0305 76.9877 23.1476C77.2842 23.2647 77.6256 23.3232 78.0119 23.3232C78.2815 23.3232 78.551 23.3007 78.8205 23.2557C79.0901 23.2016 79.2967 23.1611 79.4404 23.1341L80.3434 27.4176C80.0559 27.5077 79.6516 27.6113 79.1305 27.7284C78.6094 27.8546 77.976 27.9311 77.2303 27.9582C75.8467 28.0122 74.6338 27.8275 73.5916 27.4041C72.5584 26.9807 71.7543 26.3231 71.1793 25.4312C70.6043 24.5394 70.3213 23.4133 70.3303 22.053V1.94586Z" fill="#10B981"/>
<path d="M92.8362 28.0798C90.7428 28.0798 88.9324 27.6338 87.4051 26.742C85.8867 25.8411 84.7143 24.5889 83.8877 22.9854C83.0611 21.3729 82.6479 19.5036 82.6479 17.3776C82.6479 15.2335 83.0611 13.3597 83.8877 11.7562C84.7143 10.1437 85.8867 8.89148 87.4051 7.99963C88.9324 7.09877 90.7428 6.64834 92.8362 6.64834C94.9295 6.64834 96.7354 7.09877 98.2537 7.99963C99.7811 8.89148 100.958 10.1437 101.785 11.7562C102.611 13.3597 103.024 15.2335 103.024 17.3776C103.024 19.5036 102.611 21.3729 101.785 22.9854C100.958 24.5889 99.7811 25.8411 98.2537 26.742C96.7354 27.6338 94.9295 28.0798 92.8362 28.0798ZM92.8631 23.6205C93.8155 23.6205 94.6106 23.3503 95.2485 22.8097C95.8864 22.2602 96.367 21.5125 96.6905 20.5666C97.0229 19.6207 97.1891 18.5442 97.1891 17.337C97.1891 16.1299 97.0229 15.0534 96.6905 14.1074C96.367 13.1615 95.8864 12.4138 95.2485 11.8643C94.6106 11.3148 93.8155 11.04 92.8631 11.04C91.9018 11.04 91.0932 11.3148 90.4373 11.8643C89.7905 12.4138 89.3008 13.1615 88.9684 14.1074C88.6449 15.0534 88.4832 16.1299 88.4832 17.337C88.4832 18.5442 88.6449 19.6207 88.9684 20.5666C89.3008 21.5125 89.7905 22.2602 90.4373 22.8097C91.0932 23.3503 91.9018 23.6205 92.8631 23.6205Z" fill="#10B981"/>
<path d="M116.11 28.0798C113.99 28.0798 112.166 27.6293 110.639 26.7285C109.12 25.8186 107.952 24.5574 107.135 22.9449C106.326 21.3323 105.922 19.4766 105.922 17.3776C105.922 15.2515 106.331 13.3868 107.148 11.7832C107.975 10.1707 109.147 8.914 110.666 8.01314C112.184 7.10327 113.99 6.64834 116.083 6.64834C117.889 6.64834 119.47 6.97715 120.827 7.63478C122.184 8.2924 123.257 9.21579 124.048 10.4049C124.839 11.5941 125.274 12.9904 125.355 14.5939H119.938C119.785 13.5579 119.381 12.7246 118.725 12.094C118.078 11.4544 117.229 11.1346 116.178 11.1346C115.288 11.1346 114.511 11.3778 113.846 11.8643C113.19 12.3418 112.678 13.0399 112.31 13.9588C111.941 14.8777 111.757 15.9902 111.757 17.2965C111.757 18.6208 111.937 19.7468 112.296 20.6747C112.665 21.6026 113.181 22.3098 113.846 22.7962C114.511 23.2827 115.288 23.5259 116.178 23.5259C116.833 23.5259 117.422 23.3908 117.943 23.1205C118.473 22.8503 118.909 22.4584 119.25 21.9449C119.601 21.4224 119.83 20.7963 119.938 20.0666H125.355C125.265 21.6521 124.834 23.0485 124.061 24.2556C123.298 25.4538 122.242 26.3907 120.894 27.0663C119.547 27.7419 117.952 28.0798 116.11 28.0798Z" fill="#10B981"/>
<path d="M134.233 21.7017L134.246 14.7966H135.082L141.712 6.9186H148.302L139.394 17.3505H138.033L134.233 21.7017ZM129.031 27.6744V0H134.772V27.6744H129.031ZM141.968 27.6744L135.877 18.6343L139.704 14.5669L148.693 27.6744H141.968Z" fill="#10B981"/>
<path d="M151.227 27.6744V0H162.116C164.2 0 165.979 0.373856 167.453 1.12157C168.935 1.86027 170.063 2.90977 170.835 4.27007C171.617 5.62136 172.008 7.21137 172.008 9.04012C172.008 10.8779 171.612 12.4589 170.822 13.7831C170.031 15.0984 168.886 16.1074 167.385 16.81C165.894 17.5127 164.088 17.864 161.968 17.864H154.677V13.1615H161.024C162.138 13.1615 163.064 13.0084 163.8 12.7021C164.537 12.3958 165.085 11.9364 165.445 11.3238C165.813 10.7112 165.997 9.94999 165.997 9.04012C165.997 8.12124 165.813 7.3465 165.445 6.7159C165.085 6.0853 164.533 5.60785 163.787 5.28354C163.05 4.95022 162.12 4.78356 160.997 4.78356H157.062V27.6744H151.227ZM166.132 15.0804L172.991 27.6744H166.55L159.838 15.0804H166.132Z" fill="#EF4444"/>
</g>
</svg>
