<svg width="20" height="20" viewBox="0 0 20 20" fill="none" xmlns="http://www.w3.org/2000/svg">
<path d="M11.5556 17H13.1111M11.5556 17C10.9113 17 10.3889 16.4776 10.3889 15.8333V13.8889H10M11.5556 17H8.44445M10 13.8889H9.61112V15.8333C9.61112 16.4776 9.08876 17 8.44445 17M10 13.8889V17M8.44445 17H6.8889M13.1111 3H6.88889C4.689 3 3.58906 3 2.90565 3.68342C2.22223 4.36683 2.22223 5.46677 2.22223 7.66666V9.22221C2.22223 11.4221 2.22223 12.522 2.90565 13.2054C3.58906 13.8889 4.689 13.8889 6.88889 13.8889H13.1111C15.311 13.8889 16.4109 13.8889 17.0943 13.2054C17.7778 12.522 17.7778 11.4221 17.7778 9.22221V7.66666C17.7778 5.46677 17.7778 4.36683 17.0943 3.68342C16.4109 3 15.311 3 13.1111 3Z" stroke="#EF4444" stroke-width="1.4" stroke-linecap="round" stroke-linejoin="round"/>
</svg>
