<svg width="24" height="24" viewBox="0 0 24 24" fill="none" xmlns="http://www.w3.org/2000/svg">
<path d="M20.0001 16.2356V8.70599C20.0001 6.48757 20.0001 5.37836 19.3109 4.68917C18.6217 4 17.5125 4 15.2941 4H8.70572C6.4873 4 5.37808 4 4.6889 4.68917C3.99973 5.37836 3.99973 6.48757 3.99973 8.70599V16.2356M20.0001 16.2356H3.99973M20.0001 16.2356L21.8306 19.3189C21.9919 19.6318 21.7574 20 21.397 20H2.60277C2.24235 20 2.00793 19.6318 2.16912 19.3189L3.99973 16.2356M11.9999 12.0002V13.412M11.9999 12.0002C12.6936 12.0002 13.2996 11.6249 13.6261 11.0664M11.9999 12.0002C11.3062 12.0002 10.7002 11.6249 10.3736 11.0664M13.6261 11.0664L14.8235 11.7649M13.6261 11.0664C13.7889 10.7878 13.8823 10.4638 13.8823 10.1178C13.8823 9.77184 13.7889 9.4477 13.6261 9.16914M10.3736 11.0664L9.17629 11.7649M10.3736 11.0664C10.2108 10.7879 10.1175 10.4638 10.1175 10.1178C10.1175 9.77184 10.2108 9.44769 10.3736 9.16914M11.9999 8.23539V6.82359M11.9999 8.23539C12.6936 8.23539 13.2996 8.61061 13.6261 9.16914M11.9999 8.23539C11.3062 8.23539 10.7002 8.6106 10.3736 9.16914M13.6261 9.16914L14.8235 8.47069M10.3736 9.16914L9.17629 8.47069" stroke="#EF4444" stroke-width="1.5" stroke-linecap="round" stroke-linejoin="round"/>
</svg>
