<svg width="24" height="24" viewBox="0 0 24 24" fill="none" xmlns="http://www.w3.org/2000/svg">
<path d="M3.59998 6.74987C3.27781 6.74987 3.01664 7.01104 3.01664 7.3332C3.01664 7.65537 3.27781 7.91654 3.59998 7.91654V7.3332V6.74987ZM3.59998 16.0832C3.27781 16.0832 3.01664 16.3444 3.01664 16.6665C3.01664 16.9887 3.27781 17.2499 3.59998 17.2499V16.6665V16.0832ZM9.19998 17.2499C9.52214 17.2499 9.78331 16.9887 9.78331 16.6665C9.78331 16.3444 9.52214 16.0832 9.19998 16.0832V16.6665V17.2499ZM20.4 17.2499C20.7221 17.2499 20.9833 16.9887 20.9833 16.6665C20.9833 16.3444 20.7221 16.0832 20.4 16.0832V16.6665V17.2499ZM14.8 6.74987C14.4778 6.74987 14.2166 7.01104 14.2166 7.3332C14.2166 7.65537 14.4778 7.91654 14.8 7.91654V7.3332V6.74987ZM20.4 7.91654C20.7221 7.91654 20.9833 7.65537 20.9833 7.3332C20.9833 7.01104 20.7221 6.74987 20.4 6.74987V7.3332V7.91654ZM6.54207 5.68552L6.00314 5.46229L6.00313 5.4623L6.54207 5.68552ZM7.5523 4.67529L7.32907 4.13636L7.32906 4.13637L7.5523 4.67529ZM10.8477 4.67529L11.0709 4.13637L11.0709 4.13635L10.8477 4.67529ZM11.8579 5.68552L12.3969 5.46235L12.3968 5.46228L11.8579 5.68552ZM11.8579 8.98088L12.3968 9.20413L12.3969 9.20406L11.8579 8.98088ZM10.8477 9.99111L11.0709 10.5301L11.0709 10.53L10.8477 9.99111ZM7.5523 9.99111L7.32906 10.53L7.32907 10.53L7.5523 9.99111ZM6.54207 8.98088L6.00313 9.20411L6.00314 9.20412L6.54207 8.98088ZM12.142 15.0188L11.6031 14.7956L11.6031 14.7957L12.142 15.0188ZM13.1523 14.0086L12.9291 13.4696L12.929 13.4697L13.1523 14.0086ZM16.4477 14.0086L16.6709 13.4697L16.6708 13.4696L16.4477 14.0086ZM17.4579 15.0188L17.9969 14.7957L17.9968 14.7956L17.4579 15.0188ZM17.4579 18.3142L17.9968 18.5375L17.9969 18.5374L17.4579 18.3142ZM16.4477 19.3245L16.6708 19.8634L16.6709 19.8634L16.4477 19.3245ZM13.1523 19.3245L12.929 19.8634L12.9291 19.8634L13.1523 19.3245ZM12.142 18.3142L11.6031 18.5374L11.6031 18.5375L12.142 18.3142ZM3.59998 7.3332V7.91654H6.39998V7.3332V6.74987H3.59998V7.3332ZM3.59998 16.6665V17.2499H9.19998V16.6665V16.0832H3.59998V16.6665ZM17.6 16.6665V17.2499H20.4V16.6665V16.0832H17.6V16.6665ZM14.8 7.3332V7.91654H20.4V7.3332V6.74987H14.8V7.3332ZM6.39998 7.3332H6.98331C6.98331 6.89034 6.98362 6.58741 6.99972 6.35156C7.01545 6.12094 7.0443 5.99735 7.081 5.90875L6.54207 5.68552L6.00313 5.4623C5.89774 5.71674 5.85554 5.98212 5.83576 6.27214C5.81633 6.55692 5.81664 6.90631 5.81664 7.3332H6.39998ZM6.54207 5.68552L7.08099 5.90876C7.21125 5.59431 7.46108 5.34447 7.77553 5.21422L7.5523 4.67529L7.32906 4.13637C6.72875 4.38503 6.2518 4.86198 6.00314 5.46229L6.54207 5.68552ZM7.5523 4.67529L7.77552 5.21423C7.86412 5.17753 7.98771 5.14868 8.21833 5.13294C8.45419 5.11685 8.75712 5.11654 9.19998 5.11654V4.5332V3.94987C8.77308 3.94987 8.42369 3.94955 8.13891 3.96898C7.84889 3.98877 7.58352 4.03097 7.32907 4.13636L7.5523 4.67529ZM9.19998 4.5332V5.11654C9.64283 5.11654 9.94576 5.11685 10.1816 5.13294C10.4122 5.14868 10.5358 5.17753 10.6245 5.21424L10.8477 4.67529L11.0709 4.13635C10.8164 4.03097 10.5511 3.98877 10.261 3.96898C9.97625 3.94955 9.62687 3.94987 9.19998 3.94987V4.5332ZM10.8477 4.67529L10.6244 5.21421C10.9389 5.34447 11.1887 5.59433 11.319 5.90877L11.8579 5.68552L12.3968 5.46228C12.1482 4.86196 11.6712 4.38503 11.0709 4.13637L10.8477 4.67529ZM11.8579 5.68552L11.319 5.9087C11.3557 5.99732 11.3845 6.12092 11.4002 6.35155C11.4163 6.58741 11.4166 6.89035 11.4166 7.3332H12H12.5833C12.5833 6.9063 12.5836 6.55692 12.5642 6.27215C12.5444 5.98214 12.5022 5.71678 12.3969 5.46235L11.8579 5.68552ZM12 7.3332H11.4166C11.4166 7.77606 11.4163 8.079 11.4002 8.31486C11.3845 8.54549 11.3557 8.66909 11.319 8.7577L11.8579 8.98088L12.3969 9.20406C12.5022 8.94963 12.5444 8.68427 12.5642 8.39425C12.5836 8.10948 12.5833 7.7601 12.5833 7.3332H12ZM11.8579 8.98088L11.319 8.75764C11.1887 9.07207 10.9389 9.32193 10.6244 9.45219L10.8477 9.99111L11.0709 10.53C11.6712 10.2814 12.1482 9.80445 12.3968 9.20413L11.8579 8.98088ZM10.8477 9.99111L10.6245 9.45217C10.5358 9.48888 10.4122 9.51773 10.1816 9.53346C9.94576 9.54955 9.64283 9.54987 9.19998 9.54987V10.1332V10.7165C9.62687 10.7165 9.97625 10.7169 10.261 10.6974C10.5511 10.6776 10.8164 10.6354 11.0709 10.5301L10.8477 9.99111ZM9.19998 10.1332V9.54987C8.75712 9.54987 8.45419 9.54955 8.21833 9.53346C7.98771 9.51773 7.86412 9.48888 7.77552 9.45218L7.5523 9.99111L7.32907 10.53C7.58352 10.6354 7.84889 10.6776 8.13891 10.6974C8.42369 10.7169 8.77308 10.7165 9.19998 10.7165V10.1332ZM7.5523 9.99111L7.77553 9.45218C7.46108 9.32193 7.21125 9.0721 7.08099 8.75765L6.54207 8.98088L6.00314 9.20412C6.2518 9.80443 6.72875 10.2814 7.32906 10.53L7.5523 9.99111ZM6.54207 8.98088L7.081 8.75765C7.0443 8.66905 7.01545 8.54547 6.99972 8.31485C6.98362 8.07899 6.98331 7.77606 6.98331 7.3332H6.39998H5.81664C5.81664 7.7601 5.81633 8.10948 5.83576 8.39427C5.85554 8.68429 5.89774 8.94966 6.00313 9.20411L6.54207 8.98088ZM12 16.6665H12.5833C12.5833 16.2237 12.5836 15.9207 12.5997 15.6849C12.6154 15.4543 12.6443 15.3306 12.681 15.242L12.142 15.0188L11.6031 14.7957C11.4977 15.0501 11.4555 15.3155 11.4358 15.6055C11.4163 15.8903 11.4166 16.2396 11.4166 16.6665H12ZM12.142 15.0188L12.6809 15.2421C12.8112 14.9277 13.0611 14.6778 13.3755 14.5475L13.1523 14.0086L12.929 13.4697C12.3288 13.7183 11.8518 14.1953 11.6031 14.7956L12.142 15.0188ZM13.1523 14.0086L13.3754 14.5476C13.4641 14.5108 13.5877 14.482 13.8183 14.4663C14.0542 14.4502 14.3571 14.4499 14.8 14.4499V13.8665V13.2832C14.3731 13.2832 14.0237 13.2829 13.7389 13.3023C13.4489 13.3221 13.1836 13.3643 12.9291 13.4696L13.1523 14.0086ZM14.8 13.8665V14.4499C15.2428 14.4499 15.5458 14.4502 15.7816 14.4663C16.0123 14.482 16.1359 14.5108 16.2245 14.5476L16.4477 14.0086L16.6708 13.4696C16.4164 13.3643 16.151 13.3221 15.861 13.3023C15.5763 13.2829 15.2269 13.2832 14.8 13.2832V13.8665ZM16.4477 14.0086L16.2244 14.5475C16.5388 14.6778 16.7887 14.9277 16.919 15.2421L17.4579 15.0188L17.9968 14.7956C17.7482 14.1953 17.2712 13.7183 16.6709 13.4697L16.4477 14.0086ZM17.4579 15.0188L16.919 15.242C16.9557 15.3306 16.9845 15.4543 17.0002 15.6849C17.0163 15.9207 17.0166 16.2237 17.0166 16.6665H17.6H18.1833C18.1833 16.2396 18.1836 15.8903 18.1642 15.6055C18.1444 15.3155 18.1022 15.0501 17.9969 14.7957L17.4579 15.0188ZM17.6 16.6665H17.0166C17.0166 17.1094 17.0163 17.4123 17.0002 17.6482C16.9845 17.8788 16.9557 18.0024 16.919 18.0911L17.4579 18.3142L17.9969 18.5374C18.1022 18.283 18.1444 18.0176 18.1642 17.7276C18.1836 17.4428 18.1833 17.0934 18.1833 16.6665H17.6ZM17.4579 18.3142L16.919 18.091C16.7887 18.4054 16.5388 18.6553 16.2244 18.7856L16.4477 19.3245L16.6709 19.8634C17.2712 19.6147 17.7482 19.1377 17.9968 18.5375L17.4579 18.3142ZM16.4477 19.3245L16.2245 18.7855C16.1359 18.8222 16.0123 18.8511 15.7816 18.8668C15.5458 18.8829 15.2428 18.8832 14.8 18.8832V19.4665V20.0499C15.2269 20.0499 15.5763 20.0502 15.861 20.0308C16.151 20.011 16.4164 19.9688 16.6708 19.8634L16.4477 19.3245ZM14.8 19.4665V18.8832C14.3571 18.8832 14.0542 18.8829 13.8183 18.8668C13.5877 18.8511 13.4641 18.8222 13.3754 18.7855L13.1523 19.3245L12.9291 19.8634C13.1836 19.9688 13.4489 20.011 13.7389 20.0308C14.0237 20.0502 14.3731 20.0499 14.8 20.0499V19.4665ZM13.1523 19.3245L13.3755 18.7856C13.0611 18.6553 12.8112 18.4054 12.6809 18.091L12.142 18.3142L11.6031 18.5375C11.8518 19.1377 12.3288 19.6147 12.929 19.8634L13.1523 19.3245ZM12.142 18.3142L12.681 18.0911C12.6443 18.0024 12.6154 17.8788 12.5997 17.6482C12.5836 17.4123 12.5833 17.1094 12.5833 16.6665H12H11.4166C11.4166 17.0934 11.4163 17.4428 11.4358 17.7276C11.4555 18.0176 11.4977 18.283 11.6031 18.5374L12.142 18.3142Z" fill="black"/>
</svg>
