<svg width="24" height="24" viewBox="0 0 24 24" fill="none" xmlns="http://www.w3.org/2000/svg">
<path d="M12 11.9996C10.6082 11.9996 9.47997 10.8714 9.47997 9.47964C9.47997 8.08789 10.6082 6.95964 12 6.95964C13.3918 6.95964 14.52 8.08789 14.52 9.47964C14.52 10.8714 13.3918 11.9996 12 11.9996ZM12 11.9996C15.0927 11.9996 17.6 14.5068 17.6 17.5996M12 11.9996C8.90718 11.9996 6.39998 14.5068 6.39998 17.5996M20.4 11.9996C20.4 7.36042 16.6391 3.59961 12 3.59961C7.36078 3.59961 3.59998 7.36042 3.59998 11.9996C3.59998 16.6388 7.36078 20.3996 12 20.3996C16.6391 20.3996 20.4 16.6388 20.4 11.9996Z" stroke="#1A1A1A" stroke-width="1.68" stroke-linecap="round" stroke-linejoin="round"/>
</svg>
